<mxfile host="app.diagrams.net" modified="2020-11-02T06:42:49.514Z" agent="5.0 (Macintosh; Intel Mac OS X 10_15_3) AppleWebKit/537.36 (KHTML, like Gecko) Chrome/84.0.4147.125 Safari/537.36" etag="V0LyMe8-0o4qZ1NKL2Ag" version="13.8.8" type="github">
  <diagram id="Pa6U-koDE6Xypr8wU4GA" name="第 1 页">
    <mxGraphModel dx="983" dy="532" grid="1" gridSize="10" guides="1" tooltips="1" connect="1" arrows="1" fold="1" page="1" pageScale="1" pageWidth="1600" pageHeight="1200" math="0" shadow="0">
      <root>
        <mxCell id="0" />
        <mxCell id="1" parent="0" />
        <mxCell id="DIWSTD88eNbg3dpHvFBS-39" value="" style="endArrow=none;dashed=1;html=1;strokeWidth=3;" edge="1" parent="1">
          <mxGeometry width="50" height="50" relative="1" as="geometry">
            <mxPoint x="170" y="511" as="sourcePoint" />
            <mxPoint x="683.75" y="511.4099999999999" as="targetPoint" />
          </mxGeometry>
        </mxCell>
        <mxCell id="DIWSTD88eNbg3dpHvFBS-38" value="" style="endArrow=none;dashed=1;html=1;strokeWidth=3;" edge="1" parent="1">
          <mxGeometry width="50" height="50" relative="1" as="geometry">
            <mxPoint x="170" y="461" as="sourcePoint" />
            <mxPoint x="517.5" y="461.32999999999987" as="targetPoint" />
          </mxGeometry>
        </mxCell>
        <mxCell id="DIWSTD88eNbg3dpHvFBS-37" value="" style="endArrow=none;dashed=1;html=1;strokeWidth=3;" edge="1" parent="1">
          <mxGeometry width="50" height="50" relative="1" as="geometry">
            <mxPoint x="170" y="415" as="sourcePoint" />
            <mxPoint x="327.5" y="414.6599999999999" as="targetPoint" />
          </mxGeometry>
        </mxCell>
        <mxCell id="DIWSTD88eNbg3dpHvFBS-36" value="" style="endArrow=none;dashed=1;html=1;strokeWidth=3;" edge="1" parent="1">
          <mxGeometry width="50" height="50" relative="1" as="geometry">
            <mxPoint x="170" y="369" as="sourcePoint" />
            <mxPoint x="305" y="369.33" as="targetPoint" />
          </mxGeometry>
        </mxCell>
        <mxCell id="DIWSTD88eNbg3dpHvFBS-1" value="" style="endArrow=classic;html=1;strokeWidth=3;" edge="1" parent="1">
          <mxGeometry width="50" height="50" relative="1" as="geometry">
            <mxPoint x="170" y="321" as="sourcePoint" />
            <mxPoint x="1180" y="321" as="targetPoint" />
          </mxGeometry>
        </mxCell>
        <mxCell id="DIWSTD88eNbg3dpHvFBS-2" value="&lt;font style=&quot;font-size: 20px&quot;&gt;12:15&lt;/font&gt;" style="text;html=1;strokeColor=none;fillColor=none;align=center;verticalAlign=middle;whiteSpace=wrap;rounded=0;" vertex="1" parent="1">
          <mxGeometry x="130" y="280" width="80" height="20" as="geometry" />
        </mxCell>
        <mxCell id="DIWSTD88eNbg3dpHvFBS-3" value="&lt;font style=&quot;font-size: 20px&quot;&gt;12:45&lt;/font&gt;" style="text;html=1;strokeColor=none;fillColor=none;align=center;verticalAlign=middle;whiteSpace=wrap;rounded=0;" vertex="1" parent="1">
          <mxGeometry x="1110" y="270" width="80" height="20" as="geometry" />
        </mxCell>
        <mxCell id="DIWSTD88eNbg3dpHvFBS-7" value="&lt;div&gt;&lt;span style=&quot;font-size: 20px&quot;&gt;1. Lag&lt;/span&gt;&lt;/div&gt;&lt;span style=&quot;font-size: 20px&quot;&gt;&lt;div&gt;&lt;span&gt;2. 反压&lt;/span&gt;&lt;/div&gt;&lt;div&gt;&lt;span&gt;3. CPU高&lt;/span&gt;&lt;/div&gt;&lt;div&gt;&lt;span&gt;4. GC耗时&lt;/span&gt;&lt;/div&gt;&lt;div&gt;&lt;span&gt;5. FailOver&lt;/span&gt;&lt;/div&gt;&lt;div&gt;&lt;span&gt;6. Rocks RT&lt;/span&gt;&lt;/div&gt;&lt;/span&gt;" style="text;html=1;strokeColor=#d6b656;fillColor=#fff2cc;align=left;verticalAlign=middle;whiteSpace=wrap;rounded=0;" vertex="1" parent="1">
          <mxGeometry x="1200" y="240" width="120" height="150" as="geometry" />
        </mxCell>
        <mxCell id="DIWSTD88eNbg3dpHvFBS-8" value="" style="endArrow=classic;html=1;strokeWidth=3;" edge="1" parent="1">
          <mxGeometry width="50" height="50" relative="1" as="geometry">
            <mxPoint x="300" y="370" as="sourcePoint" />
            <mxPoint x="1150" y="370" as="targetPoint" />
          </mxGeometry>
        </mxCell>
        <mxCell id="DIWSTD88eNbg3dpHvFBS-9" value="" style="endArrow=none;dashed=1;html=1;strokeColor=#FF0000;strokeWidth=2;" edge="1" parent="1">
          <mxGeometry width="50" height="50" relative="1" as="geometry">
            <mxPoint x="170" y="530" as="sourcePoint" />
            <mxPoint x="169.5" y="310" as="targetPoint" />
          </mxGeometry>
        </mxCell>
        <mxCell id="DIWSTD88eNbg3dpHvFBS-10" value="" style="endArrow=none;dashed=1;html=1;strokeColor=#FF0000;strokeWidth=2;" edge="1" parent="1">
          <mxGeometry width="50" height="50" relative="1" as="geometry">
            <mxPoint x="300" y="399" as="sourcePoint" />
            <mxPoint x="300" y="309" as="targetPoint" />
          </mxGeometry>
        </mxCell>
        <mxCell id="DIWSTD88eNbg3dpHvFBS-11" value="&lt;font style=&quot;font-size: 18px&quot;&gt;Rock RT 高&lt;/font&gt;" style="text;html=1;strokeColor=#666666;fillColor=#f5f5f5;align=center;verticalAlign=middle;whiteSpace=wrap;rounded=0;fontColor=#333333;" vertex="1" parent="1">
          <mxGeometry x="340" y="330" width="120" height="30" as="geometry" />
        </mxCell>
        <mxCell id="DIWSTD88eNbg3dpHvFBS-12" value="" style="endArrow=none;dashed=1;html=1;strokeColor=#FF0000;strokeWidth=2;" edge="1" parent="1">
          <mxGeometry width="50" height="50" relative="1" as="geometry">
            <mxPoint x="320" y="430" as="sourcePoint" />
            <mxPoint x="320" y="310" as="targetPoint" />
          </mxGeometry>
        </mxCell>
        <mxCell id="DIWSTD88eNbg3dpHvFBS-13" value="&lt;font style=&quot;font-size: 20px&quot;&gt;12:17&lt;/font&gt;" style="text;html=1;strokeColor=none;fillColor=none;align=center;verticalAlign=middle;whiteSpace=wrap;rounded=0;" vertex="1" parent="1">
          <mxGeometry x="228" y="284" width="80" height="20" as="geometry" />
        </mxCell>
        <mxCell id="DIWSTD88eNbg3dpHvFBS-14" value="&lt;font style=&quot;font-size: 20px&quot;&gt;12:18&lt;/font&gt;" style="text;html=1;strokeColor=none;fillColor=none;align=center;verticalAlign=middle;whiteSpace=wrap;rounded=0;" vertex="1" parent="1">
          <mxGeometry x="300" y="284" width="80" height="20" as="geometry" />
        </mxCell>
        <mxCell id="DIWSTD88eNbg3dpHvFBS-15" value="" style="ellipse;whiteSpace=wrap;html=1;aspect=fixed;strokeColor=none;fillColor=#9933FF;" vertex="1" parent="1">
          <mxGeometry x="293" y="362" width="15" height="15" as="geometry" />
        </mxCell>
        <mxCell id="DIWSTD88eNbg3dpHvFBS-19" value="" style="endArrow=none;dashed=1;html=1;strokeColor=#FF0000;strokeWidth=2;" edge="1" parent="1">
          <mxGeometry width="50" height="50" relative="1" as="geometry">
            <mxPoint x="1150" y="530" as="sourcePoint" />
            <mxPoint x="1149.58" y="310" as="targetPoint" />
          </mxGeometry>
        </mxCell>
        <mxCell id="DIWSTD88eNbg3dpHvFBS-20" value="" style="endArrow=classic;html=1;strokeWidth=3;" edge="1" parent="1">
          <mxGeometry width="50" height="50" relative="1" as="geometry">
            <mxPoint x="320" y="414" as="sourcePoint" />
            <mxPoint x="1150" y="414" as="targetPoint" />
          </mxGeometry>
        </mxCell>
        <mxCell id="DIWSTD88eNbg3dpHvFBS-21" value="" style="ellipse;whiteSpace=wrap;html=1;aspect=fixed;strokeColor=none;fillColor=#9933FF;" vertex="1" parent="1">
          <mxGeometry x="312.5" y="407" width="15" height="15" as="geometry" />
        </mxCell>
        <mxCell id="DIWSTD88eNbg3dpHvFBS-22" value="&lt;font style=&quot;font-size: 18px&quot;&gt;Lag &amp;amp; 反压&lt;/font&gt;" style="text;html=1;strokeColor=#666666;fillColor=#f5f5f5;align=center;verticalAlign=middle;whiteSpace=wrap;rounded=0;fontColor=#333333;" vertex="1" parent="1">
          <mxGeometry x="360" y="377" width="120" height="30" as="geometry" />
        </mxCell>
        <mxCell id="DIWSTD88eNbg3dpHvFBS-23" value="" style="endArrow=none;dashed=1;html=1;strokeColor=#FF0000;strokeWidth=2;" edge="1" parent="1" source="DIWSTD88eNbg3dpHvFBS-27">
          <mxGeometry width="50" height="50" relative="1" as="geometry">
            <mxPoint x="510" y="490" as="sourcePoint" />
            <mxPoint x="510" y="309.9999999999999" as="targetPoint" />
          </mxGeometry>
        </mxCell>
        <mxCell id="DIWSTD88eNbg3dpHvFBS-24" value="&lt;font style=&quot;font-size: 20px&quot;&gt;12:22&lt;/font&gt;" style="text;html=1;strokeColor=none;fillColor=none;align=center;verticalAlign=middle;whiteSpace=wrap;rounded=0;" vertex="1" parent="1">
          <mxGeometry x="470" y="284" width="80" height="20" as="geometry" />
        </mxCell>
        <mxCell id="DIWSTD88eNbg3dpHvFBS-25" value="" style="endArrow=classic;html=1;strokeWidth=3;" edge="1" parent="1">
          <mxGeometry width="50" height="50" relative="1" as="geometry">
            <mxPoint x="510" y="461" as="sourcePoint" />
            <mxPoint x="1150" y="461" as="targetPoint" />
          </mxGeometry>
        </mxCell>
        <mxCell id="DIWSTD88eNbg3dpHvFBS-26" value="&lt;span style=&quot;font-size: 18px&quot;&gt;Cpu高&lt;/span&gt;" style="text;html=1;strokeColor=#666666;fillColor=#f5f5f5;align=center;verticalAlign=middle;whiteSpace=wrap;rounded=0;fontColor=#333333;" vertex="1" parent="1">
          <mxGeometry x="530" y="422" width="120" height="30" as="geometry" />
        </mxCell>
        <mxCell id="DIWSTD88eNbg3dpHvFBS-27" value="" style="ellipse;whiteSpace=wrap;html=1;aspect=fixed;strokeColor=none;fillColor=#9933FF;" vertex="1" parent="1">
          <mxGeometry x="502.5" y="454" width="15" height="15" as="geometry" />
        </mxCell>
        <mxCell id="DIWSTD88eNbg3dpHvFBS-28" value="" style="endArrow=none;dashed=1;html=1;strokeColor=#FF0000;strokeWidth=2;" edge="1" parent="1" target="DIWSTD88eNbg3dpHvFBS-27">
          <mxGeometry width="50" height="50" relative="1" as="geometry">
            <mxPoint x="510" y="490" as="sourcePoint" />
            <mxPoint x="510" y="309.9999999999999" as="targetPoint" />
          </mxGeometry>
        </mxCell>
        <mxCell id="DIWSTD88eNbg3dpHvFBS-29" value="" style="endArrow=none;dashed=1;html=1;strokeColor=#FF0000;strokeWidth=2;" edge="1" parent="1">
          <mxGeometry width="50" height="50" relative="1" as="geometry">
            <mxPoint x="680" y="530" as="sourcePoint" />
            <mxPoint x="680" y="307.9999999999999" as="targetPoint" />
          </mxGeometry>
        </mxCell>
        <mxCell id="DIWSTD88eNbg3dpHvFBS-30" value="" style="endArrow=classic;html=1;strokeWidth=3;" edge="1" parent="1">
          <mxGeometry width="50" height="50" relative="1" as="geometry">
            <mxPoint x="680" y="511" as="sourcePoint" />
            <mxPoint x="1150" y="511" as="targetPoint" />
          </mxGeometry>
        </mxCell>
        <mxCell id="DIWSTD88eNbg3dpHvFBS-31" value="&lt;span style=&quot;font-size: 18px&quot;&gt;GC耗时长&lt;/span&gt;" style="text;html=1;strokeColor=#666666;fillColor=#f5f5f5;align=center;verticalAlign=middle;whiteSpace=wrap;rounded=0;fontColor=#333333;" vertex="1" parent="1">
          <mxGeometry x="698" y="470" width="122" height="30" as="geometry" />
        </mxCell>
        <mxCell id="DIWSTD88eNbg3dpHvFBS-32" value="" style="ellipse;whiteSpace=wrap;html=1;aspect=fixed;strokeColor=none;fillColor=#9933FF;" vertex="1" parent="1">
          <mxGeometry x="673" y="504" width="15" height="15" as="geometry" />
        </mxCell>
        <mxCell id="DIWSTD88eNbg3dpHvFBS-34" value="" style="ellipse;whiteSpace=wrap;html=1;aspect=fixed;strokeColor=none;fillColor=#9933FF;" vertex="1" parent="1">
          <mxGeometry x="1143" y="504" width="15" height="15" as="geometry" />
        </mxCell>
        <mxCell id="DIWSTD88eNbg3dpHvFBS-35" value="&lt;span style=&quot;font-size: 18px&quot;&gt;FailOver TimeOut&lt;/span&gt;" style="text;html=1;strokeColor=#666666;fillColor=#f5f5f5;align=center;verticalAlign=middle;whiteSpace=wrap;rounded=0;fontColor=#333333;" vertex="1" parent="1">
          <mxGeometry x="970" y="474" width="162" height="30" as="geometry" />
        </mxCell>
        <mxCell id="DIWSTD88eNbg3dpHvFBS-40" value="&lt;font style=&quot;font-size: 20px&quot;&gt;12:30&lt;/font&gt;" style="text;html=1;strokeColor=none;fillColor=none;align=center;verticalAlign=middle;whiteSpace=wrap;rounded=0;" vertex="1" parent="1">
          <mxGeometry x="630" y="280" width="80" height="20" as="geometry" />
        </mxCell>
        <mxCell id="DIWSTD88eNbg3dpHvFBS-41" value="" style="ellipse;whiteSpace=wrap;html=1;aspect=fixed;strokeColor=none;fillColor=#9933FF;" vertex="1" parent="1">
          <mxGeometry x="170" y="570" width="15" height="15" as="geometry" />
        </mxCell>
        <mxCell id="DIWSTD88eNbg3dpHvFBS-42" value="第一次出现异常的点" style="text;html=1;strokeColor=none;fillColor=none;align=center;verticalAlign=middle;whiteSpace=wrap;rounded=0;strokeWidth=2;" vertex="1" parent="1">
          <mxGeometry x="174" y="567" width="150" height="20" as="geometry" />
        </mxCell>
        <mxCell id="DIWSTD88eNbg3dpHvFBS-43" value="&lt;font style=&quot;font-size: 18px&quot;&gt;Rock RT 高&lt;/font&gt;" style="text;html=1;strokeColor=#b85450;fillColor=#f8cecc;align=center;verticalAlign=middle;whiteSpace=wrap;rounded=0;" vertex="1" parent="1">
          <mxGeometry x="170" y="630" width="120" height="30" as="geometry" />
        </mxCell>
        <mxCell id="DIWSTD88eNbg3dpHvFBS-44" value="&lt;font style=&quot;font-size: 18px&quot;&gt;Lag &amp;amp; 反压&lt;/font&gt;" style="text;html=1;strokeColor=#666666;fillColor=#f5f5f5;align=center;verticalAlign=middle;whiteSpace=wrap;rounded=0;fontColor=#333333;" vertex="1" parent="1">
          <mxGeometry x="327.5" y="630" width="120" height="30" as="geometry" />
        </mxCell>
        <mxCell id="DIWSTD88eNbg3dpHvFBS-45" value="&lt;span style=&quot;font-size: 18px&quot;&gt;Cpu高&lt;/span&gt;" style="text;html=1;strokeColor=#666666;fillColor=#f5f5f5;align=center;verticalAlign=middle;whiteSpace=wrap;rounded=0;fontColor=#333333;" vertex="1" parent="1">
          <mxGeometry x="490" y="630" width="120" height="30" as="geometry" />
        </mxCell>
        <mxCell id="DIWSTD88eNbg3dpHvFBS-46" value="&lt;span style=&quot;font-size: 18px&quot;&gt;GC耗时长&lt;/span&gt;" style="text;html=1;strokeColor=#666666;fillColor=#f5f5f5;align=center;verticalAlign=middle;whiteSpace=wrap;rounded=0;fontColor=#333333;" vertex="1" parent="1">
          <mxGeometry x="650" y="630" width="122" height="30" as="geometry" />
        </mxCell>
        <mxCell id="DIWSTD88eNbg3dpHvFBS-47" value="&lt;span style=&quot;font-size: 18px&quot;&gt;FailOver TimeOut&lt;/span&gt;" style="text;html=1;strokeColor=#666666;fillColor=#f5f5f5;align=center;verticalAlign=middle;whiteSpace=wrap;rounded=0;fontColor=#333333;" vertex="1" parent="1">
          <mxGeometry x="808" y="630" width="162" height="30" as="geometry" />
        </mxCell>
        <mxCell id="DIWSTD88eNbg3dpHvFBS-50" value="" style="endArrow=classic;html=1;strokeColor=#000000;strokeWidth=1;exitX=1;exitY=0.5;exitDx=0;exitDy=0;" edge="1" parent="1" source="DIWSTD88eNbg3dpHvFBS-43" target="DIWSTD88eNbg3dpHvFBS-44">
          <mxGeometry width="50" height="50" relative="1" as="geometry">
            <mxPoint x="290" y="730" as="sourcePoint" />
            <mxPoint x="340" y="680" as="targetPoint" />
          </mxGeometry>
        </mxCell>
        <mxCell id="DIWSTD88eNbg3dpHvFBS-51" value="" style="endArrow=classic;html=1;strokeColor=#000000;strokeWidth=1;exitX=1;exitY=0.5;exitDx=0;exitDy=0;entryX=0;entryY=0.5;entryDx=0;entryDy=0;" edge="1" parent="1" source="DIWSTD88eNbg3dpHvFBS-44" target="DIWSTD88eNbg3dpHvFBS-45">
          <mxGeometry width="50" height="50" relative="1" as="geometry">
            <mxPoint x="460" y="680" as="sourcePoint" />
            <mxPoint x="497.5" y="680" as="targetPoint" />
          </mxGeometry>
        </mxCell>
        <mxCell id="DIWSTD88eNbg3dpHvFBS-52" value="" style="endArrow=classic;html=1;strokeColor=#000000;strokeWidth=1;exitX=1;exitY=0.5;exitDx=0;exitDy=0;entryX=0;entryY=0.5;entryDx=0;entryDy=0;" edge="1" parent="1" source="DIWSTD88eNbg3dpHvFBS-45" target="DIWSTD88eNbg3dpHvFBS-46">
          <mxGeometry width="50" height="50" relative="1" as="geometry">
            <mxPoint x="630.5" y="680" as="sourcePoint" />
            <mxPoint x="673" y="680" as="targetPoint" />
          </mxGeometry>
        </mxCell>
        <mxCell id="DIWSTD88eNbg3dpHvFBS-53" value="" style="endArrow=classic;html=1;strokeColor=#000000;strokeWidth=1;exitX=1;exitY=0.5;exitDx=0;exitDy=0;entryX=0;entryY=0.5;entryDx=0;entryDy=0;" edge="1" parent="1" source="DIWSTD88eNbg3dpHvFBS-46" target="DIWSTD88eNbg3dpHvFBS-47">
          <mxGeometry width="50" height="50" relative="1" as="geometry">
            <mxPoint x="772" y="680" as="sourcePoint" />
            <mxPoint x="812" y="680" as="targetPoint" />
          </mxGeometry>
        </mxCell>
        <mxCell id="DIWSTD88eNbg3dpHvFBS-54" value="&lt;font style=&quot;font-size: 18px&quot;&gt;词库&lt;/font&gt;" style="shape=cylinder3;whiteSpace=wrap;html=1;boundedLbl=1;backgroundOutline=1;size=15;strokeWidth=1;gradientColor=none;" vertex="1" parent="1">
          <mxGeometry x="854" y="690" width="70" height="60" as="geometry" />
        </mxCell>
        <mxCell id="DIWSTD88eNbg3dpHvFBS-55" value="" style="endArrow=classic;html=1;strokeColor=#000000;strokeWidth=1;exitX=0.5;exitY=0;exitDx=0;exitDy=0;exitPerimeter=0;entryX=0.5;entryY=1;entryDx=0;entryDy=0;" edge="1" parent="1" source="DIWSTD88eNbg3dpHvFBS-54" target="DIWSTD88eNbg3dpHvFBS-47">
          <mxGeometry width="50" height="50" relative="1" as="geometry">
            <mxPoint x="940" y="740" as="sourcePoint" />
            <mxPoint x="990" y="690" as="targetPoint" />
          </mxGeometry>
        </mxCell>
        <mxCell id="DIWSTD88eNbg3dpHvFBS-56" value="" style="edgeStyle=elbowEdgeStyle;elbow=vertical;endArrow=classic;html=1;strokeColor=#000000;strokeWidth=1;exitX=0.5;exitY=1;exitDx=0;exitDy=0;" edge="1" parent="1" source="DIWSTD88eNbg3dpHvFBS-43">
          <mxGeometry width="50" height="50" relative="1" as="geometry">
            <mxPoint x="410" y="780" as="sourcePoint" />
            <mxPoint x="560" y="750" as="targetPoint" />
            <Array as="points">
              <mxPoint x="390" y="710" />
            </Array>
          </mxGeometry>
        </mxCell>
        <mxCell id="DIWSTD88eNbg3dpHvFBS-57" value="" style="endArrow=classic;html=1;strokeColor=#000000;strokeWidth=1;exitX=0;exitY=0.5;exitDx=0;exitDy=0;exitPerimeter=0;" edge="1" parent="1" source="DIWSTD88eNbg3dpHvFBS-54">
          <mxGeometry width="50" height="50" relative="1" as="geometry">
            <mxPoint x="790" y="810" as="sourcePoint" />
            <mxPoint x="560" y="720" as="targetPoint" />
          </mxGeometry>
        </mxCell>
        <mxCell id="DIWSTD88eNbg3dpHvFBS-58" value="输出诊断结果" style="rounded=1;whiteSpace=wrap;html=1;strokeWidth=1;fillColor=#ffffff;gradientColor=none;" vertex="1" parent="1">
          <mxGeometry x="517.5" y="760" width="90" height="30" as="geometry" />
        </mxCell>
      </root>
    </mxGraphModel>
  </diagram>
</mxfile>
